<?xml version="1.0" standalone="no"?>
<!DOCTYPE svg PUBLIC "-//W3C//DTD SVG 20010904//EN"
 "http://www.w3.org/TR/2001/REC-SVG-20010904/DTD/svg10.dtd">
<svg version="1.0" xmlns="http://www.w3.org/2000/svg"
 width="359.000000pt" height="340.000000pt" viewBox="0 0 359.000000 340.000000"
 preserveAspectRatio="xMidYMid meet">

<g transform="translate(0.000000,340.000000) scale(0.100000,-0.100000)"
fill="#000000" stroke="none">
<path d="M462 2249 c-64 -71 -72 -84 -72 -120 0 -75 43 -119 117 -119 30 0 45
10 109 72 41 39 74 76 74 82 0 7 -31 43 -70 81 l-69 69 -58 -63 c-70 -78 -75
-85 -84 -136 l-6 -40 -2 48 c-1 45 2 52 52 105 65 71 91 102 86 102 -3 0 -37
-36 -77 -81z"/>
<path d="M1491 2228 c-5 -13 -22 -57 -37 -98 -53 -139 -174 -286 -252 -306
-57 -15 -42 39 44 160 48 68 44 123 -6 96 -11 -6 -61 -50 -110 -97 -105 -100
-137 -125 -205 -160 -162 -84 -344 -67 -495 46 l-35 26 40 -46 c85 -98 167
-153 290 -195 158 -55 356 -31 510 61 152 91 261 249 300 434 8 39 12 77 9 86
-9 23 -43 18 -53 -7z"/>
<path d="M2985 1270 c-4 -6 3 -10 14 -10 25 0 27 6 6 13 -8 4 -17 2 -20 -3z"/>
<path d="M2380 1102 c20 -9 22 -152 3 -152 -23 0 -14 -15 10 -16 21 -1 22 2
20 55 -1 31 -2 71 -3 89 0 27 -4 32 -22 31 -17 0 -19 -2 -8 -7z"/>
<path d="M2219 1091 c10 -7 18 -132 8 -147 -3 -6 5 -10 19 -10 13 0 24 4 24 8
0 4 -4 8 -9 8 -4 0 -6 11 -3 25 3 19 11 25 29 25 38 0 63 18 63 45 0 35 -37
56 -94 54 -26 -1 -43 -5 -37 -8z m116 -39 c8 -20 -17 -39 -57 -44 -32 -3 -35
-2 -27 13 5 10 9 27 9 38 0 35 61 29 75 -7z"/>
<path d="M2552 1052 c-7 -2 -12 -11 -12 -20 1 -16 2 -16 13 -1 9 12 18 14 35
8 28 -11 29 -39 1 -39 -50 0 -75 -35 -43 -61 13 -11 21 -11 44 3 22 12 27 13
24 3 -4 -9 1 -13 14 -12 18 1 19 4 7 19 -7 10 -11 32 -9 48 2 17 -1 30 -7 30
-6 0 -7 5 -4 10 3 6 3 10 -2 11 -4 0 -17 2 -28 3 -12 1 -26 1 -33 -2z m59 -81
c-13 -24 -51 -35 -51 -14 0 9 -5 11 -12 7 -9 -5 -9 -2 1 9 7 9 27 17 43 17 25
0 27 -2 19 -19z"/>
<path d="M2845 1050 c-11 -4 -33 -6 -50 -4 -16 2 -24 2 -17 -2 6 -3 12 -23 12
-45 0 -28 4 -39 15 -39 10 0 14 9 12 29 -1 16 -5 27 -9 24 -5 -2 -8 2 -8 9 0
8 15 14 37 16 20 1 34 -1 30 -4 -3 -3 -2 -16 3 -29 6 -14 4 -31 -5 -47 -12
-24 -11 -25 12 -25 17 0 22 4 19 16 -3 9 -6 33 -8 54 -3 44 -15 58 -43 47z"/>
<path d="M3023 1045 c-10 -7 -12 -14 -6 -18 6 -4 13 -1 16 7 7 18 39 10 54
-13 9 -14 7 -17 -11 -19 -50 -3 -66 -12 -66 -38 0 -30 23 -41 56 -26 13 7 24
8 24 3 0 -4 6 -8 14 -8 10 0 12 12 8 46 -2 25 -9 51 -14 57 -13 18 -56 23 -75
9z m70 -62 c-7 -2 -13 -11 -13 -18 0 -21 -28 -26 -45 -8 -21 20 -4 33 40 32
17 0 24 -3 18 -6z"/>
<path d="M3172 1044 c-14 -10 -19 -23 -17 -51 3 -53 4 -55 15 -48 6 3 10 1 10
-4 0 -18 36 -12 55 9 10 11 13 20 7 20 -7 0 -12 -4 -12 -9 0 -16 -41 -20 -47
-5 -3 8 -10 11 -15 8 -6 -4 -8 2 -3 17 3 13 9 32 11 42 3 9 11 17 19 17 23 0
45 -12 39 -21 -3 -5 0 -9 6 -9 6 0 10 8 8 17 -4 23 -52 34 -76 17z"/>
<path d="M3364 1049 c-3 -5 6 -9 20 -9 31 0 34 6 6 13 -11 3 -23 1 -26 -4z"/>
<path d="M2461 1028 c17 -30 18 -78 2 -78 -7 0 -13 -4 -13 -9 0 -5 8 -8 18 -6
9 2 21 4 25 4 5 1 5 6 1 12 -4 7 -7 30 -8 53 -1 31 -5 42 -19 44 -17 3 -17 1
-6 -20z"/>
<path d="M2678 1043 c6 -2 12 -18 12 -34 0 -16 4 -29 10 -29 5 0 8 13 6 30 -2
16 1 27 5 24 5 -3 16 -1 24 3 10 6 1 9 -28 10 -23 0 -36 -1 -29 -4z"/>
<path d="M2915 1041 c11 -5 22 -7 25 -6 3 2 4 -15 2 -38 -4 -41 -3 -41 12 -20
11 14 14 31 10 48 -5 20 -12 25 -38 24 -26 0 -28 -2 -11 -8z"/>
<path d="M3283 1043 c9 -3 15 -9 12 -14 -3 -4 0 -21 8 -35 9 -17 17 -23 21
-16 4 7 2 21 -5 33 -8 16 -8 23 1 29 6 4 -4 7 -22 7 -18 0 -25 -2 -15 -4z"/>
<path d="M3361 999 c-13 -38 -13 -39 -2 -39 5 0 11 8 14 18 2 9 8 25 12 35 4
9 3 17 -3 17 -6 0 -15 -14 -21 -31z"/>
<path d="M2948 958 c-22 -22 -22 -25 -3 -25 8 0 15 5 15 11 0 6 5 4 10 -4 11
-17 12 -3 2 20 -6 14 -9 14 -24 -2z"/>
<path d="M2693 956 c4 -10 1 -13 -9 -9 -7 3 -14 0 -14 -6 0 -6 13 -10 30 -9
34 3 35 4 16 24 -19 18 -30 18 -23 0z"/>
<path d="M3327 963 c-11 -10 -8 -25 3 -18 13 8 13 -1 0 -26 -6 -10 -17 -19
-25 -19 -8 0 -15 -5 -15 -11 0 -6 7 -8 16 -5 9 3 19 6 24 6 4 0 13 13 18 29 8
22 7 32 -2 40 -7 6 -16 8 -19 4z"/>
<path d="M2780 940 c0 -5 5 -10 10 -10 6 0 10 5 10 10 0 6 -4 10 -10 10 -5 0
-10 -4 -10 -10z"/>
<path d="M2815 940 c3 -5 8 -10 11 -10 2 0 4 5 4 10 0 6 -5 10 -11 10 -5 0 -7
-4 -4 -10z"/>
</g>
</svg>
