<?xml version="1.0" standalone="no"?>
<!DOCTYPE svg PUBLIC "-//W3C//DTD SVG 20010904//EN"
 "http://www.w3.org/TR/2001/REC-SVG-20010904/DTD/svg10.dtd">
<svg version="1.0" xmlns="http://www.w3.org/2000/svg"
 width="959.000000pt" height="959.000000pt" viewBox="0 0 959.000000 959.000000"
 preserveAspectRatio="xMidYMid meet">

<g transform="translate(0.000000,959.000000) scale(0.100000,-0.100000)"
fill="#000000" stroke="none">
<path d="M1994 6037 c-32 -34 -104 -112 -159 -172 -55 -60 -131 -143 -170
-185 -181 -194 -467 -509 -495 -545 -89 -112 -170 -345 -170 -490 0 -143 56
-338 133 -457 44 -69 144 -177 207 -223 214 -157 496 -195 742 -100 150 58
231 122 428 340 25 28 77 84 115 125 39 42 111 120 160 175 50 54 97 106 105
115 8 9 60 65 115 125 55 60 126 136 158 169 l57 61 -102 100 c-57 54 -251
244 -433 420 -424 413 -508 493 -518 495 -9 1 -52 -45 -396 -420 -123 -135
-265 -290 -315 -344 -137 -149 -144 -157 -182 -214 -48 -72 -88 -163 -109
-249 -14 -56 -16 -99 -12 -200 5 -144 30 -234 93 -338 19 -32 34 -60 34 -63 0
-13 -46 38 -75 83 -84 133 -120 274 -112 438 6 133 24 204 78 312 49 99 83
139 434 520 66 71 197 213 290 315 93 102 172 187 175 190 30 29 32 41 15 60
-10 11 -21 20 -25 20 -4 0 -33 -28 -66 -63z"/>
<path d="M8901 5573 c-40 -8 -104 -83 -148 -175 -44 -89 -63 -152 -108 -348
-42 -180 -144 -428 -329 -800 -141 -282 -178 -347 -332 -580 -378 -571 -793
-944 -1253 -1124 -52 -21 -111 -38 -132 -39 -77 -3 -119 45 -119 137 0 51 10
76 112 282 122 247 142 280 263 429 245 301 389 518 436 659 31 91 30 228 -2
292 -30 61 -65 86 -126 91 -99 10 -263 -73 -352 -177 -24 -28 -130 -131 -235
-228 -105 -97 -297 -283 -426 -415 -129 -131 -286 -285 -350 -340 -63 -56
-117 -105 -120 -108 -34 -39 -367 -283 -575 -421 -270 -179 -633 -347 -900
-418 -363 -95 -472 -111 -810 -117 -212 -4 -303 -2 -423 11 -281 31 -516 88
-792 193 -423 161 -731 358 -1050 670 -85 83 -156 150 -157 149 -10 -9 218
-320 349 -478 358 -429 815 -806 1283 -1058 44 -24 99 -53 122 -66 239 -131
686 -297 983 -364 382 -86 598 -110 1000 -110 359 0 520 16 870 86 746 150
1509 529 2091 1039 303 266 619 656 834 1030 65 113 203 379 228 440 9 22 37
87 62 145 160 361 301 842 340 1155 9 72 25 165 37 208 23 89 20 140 -13 217
-45 105 -142 155 -258 133z"/>
</g>
</svg>
